<?xml version="1.0" encoding="UTF-8"?>
<svg id="Camada_2" data-name="Camada 2" xmlns="http://www.w3.org/2000/svg" viewBox="0 0 1000 1000">
  <defs>
    <style>
      .cls-1 {
        fill: #111;
      }

      .cls-2 {
        fill: #f7f7f7;
      }
    </style>
  </defs>
  <g id="Camada_1-2" data-name="Camada 1">
    <g>
      <rect class="cls-1" width="1000" height="1000"/>
      <g>
        <g>
          <path class="cls-2" d="M273.29,572.6v-129.77h86.72v24.11h-62.63v28.03h49.69v24.11h-49.69v29.42h62.63v24.1h-86.72Z"/>
          <path class="cls-2" d="M410.87,574.38c-5.14-.34-10.09-1.37-14.87-3.12-4.77-1.74-9-4.13-12.68-7.15-3.7-3.04-6.53-6.65-8.5-10.87l20.35-8.7c.79,1.32,2.07,2.72,3.84,4.2,1.78,1.48,3.91,2.72,6.38,3.71,2.46.98,5.18,1.48,8.15,1.48,2.49,0,4.89-.35,7.15-1.04,2.27-.69,4.12-1.75,5.53-3.2s2.12-3.33,2.12-5.64-.84-4.32-2.51-5.67c-1.69-1.35-3.79-2.36-6.33-3.05-2.52-.69-4.98-1.33-7.35-1.93-6.27-1.25-12.07-3.2-17.44-5.84-5.37-2.62-9.68-6.03-12.94-10.22-3.25-4.18-4.89-9.23-4.89-15.16,0-6.51,1.74-12.14,5.19-16.88,3.46-4.74,7.96-8.41,13.53-10.96,5.56-2.57,11.56-3.86,18.02-3.86,7.83,0,15.03,1.62,21.57,4.89,6.56,3.26,11.73,7.86,15.56,13.78l-19.06,11.27c-.92-1.59-2.2-3.05-3.84-4.4-1.66-1.35-3.54-2.46-5.64-3.36-2.11-.88-4.31-1.4-6.61-1.53-2.97-.13-5.67.13-8.1.79-2.44.66-4.4,1.78-5.88,3.36-1.48,1.59-2.22,3.7-2.22,6.32s.98,4.37,2.96,5.59c1.98,1.21,4.37,2.15,7.17,2.81,2.8.66,5.48,1.38,8.05,2.17,5.79,1.91,11.24,4.24,16.33,7.01,5.11,2.76,9.21,6.16,12.3,10.18,3.1,4.02,4.58,8.83,4.45,14.42,0,6.38-1.91,11.96-5.74,16.73-3.81,4.77-8.73,8.42-14.76,10.91-6.03,2.51-12.46,3.49-19.31,2.97Z"/>
          <path class="cls-2" d="M520.49,497.93h-17.04v74.67h-24.11v-74.67h-16.72v-24.1h16.72v-31.01h24.11v31.01h17.04v24.1Z"/>
          <path class="cls-2" d="M550.52,467.51c-3.55,0-6.54-1.16-8.99-3.5-2.44-2.33-3.65-5.27-3.65-8.84s1.21-6.41,3.65-8.78c2.44-2.38,5.4-3.57,8.89-3.57s6.43,1.19,8.84,3.57c2.4,2.36,3.6,5.29,3.6,8.78s-1.19,6.51-3.55,8.84c-2.38,2.35-5.3,3.5-8.79,3.5ZM538.27,473.83h24.1v98.76h-24.1v-98.76Z"/>
          <path class="cls-2" d="M586.07,572.6v-129.77h24.1v129.77h-24.1Z"/>
          <path class="cls-2" d="M677.33,575.17c-9.1,0-17.38-2.35-24.85-7.01-7.47-4.68-13.42-10.95-17.88-18.82-4.44-7.86-6.65-16.57-6.65-26.12,0-7.25,1.29-14,3.84-20.3,2.57-6.29,6.11-11.81,10.63-16.59,4.5-4.77,9.76-8.5,15.75-11.2,5.98-2.7,12.38-4.05,19.16-4.05,9.08,0,17.36,2.33,24.84,7.01,7.47,4.68,13.42,10.96,17.88,18.87,4.44,7.89,6.67,16.65,6.67,26.27,0,7.17-1.29,13.89-3.86,20.14-2.57,6.27-6.11,11.78-10.61,16.54-4.52,4.79-9.76,8.52-15.71,11.22-5.96,2.7-12.36,4.05-19.21,4.05ZM677.33,551.07c4.81,0,9.11-1.29,12.94-3.86,3.81-2.57,6.82-5.96,9.03-10.18,2.2-4.21,3.31-8.83,3.31-13.82s-1.14-9.82-3.41-14.08c-2.28-4.24-5.34-7.64-9.19-10.16-3.84-2.54-8.09-3.81-12.68-3.81s-9.03,1.29-12.84,3.86c-3.83,2.56-6.85,5.98-9.08,10.27-2.25,4.28-3.36,8.92-3.36,13.92s1.14,9.92,3.46,14.13c2.3,4.21,5.39,7.56,9.23,10.01,3.86,2.48,8.05,3.71,12.6,3.71Z"/>
        </g>
        <path class="cls-2" d="M457.97,407.17c15.22,0,29.54-3.86,42.03-10.68,12.49,6.8,26.82,10.68,42.04,10.68,48.58,0,87.95-39.39,87.95-87.95s-39.37-87.96-87.95-87.96c-15.22,0-29.55,3.88-42.04,10.68-12.49-6.82-26.8-10.68-42.03-10.68-48.57,0-87.95,39.39-87.95,87.96s39.39,87.95,87.95,87.95ZM457.97,373.86c-27.23,0-49.8-19.92-53.95-45.97h50.49c1.61,16.5,7.79,31.67,17.24,44.22-4.41,1.14-9.02,1.75-13.78,1.75ZM542.03,373.86c-4.76,0-9.39-.61-13.79-1.75-11.22-2.92-21.04-9.32-28.23-17.97-3.71-4.46-6.72-9.52-8.87-15.02h101.8c-7.96,20.33-27.75,34.74-50.91,34.74ZM542.03,264.56c27.24,0,49.82,19.93,53.96,45.99h-50.49c-1.61-16.52-7.81-31.69-17.27-44.24,4.41-1.14,9.03-1.75,13.79-1.75ZM457.97,264.56c4.76,0,9.38.61,13.78,1.75,11.23,2.92,21.06,9.32,28.26,17.98,3.71,4.46,6.74,9.53,8.88,15.03h-101.83c7.95-20.34,27.74-34.76,50.91-34.76Z"/>
        <g>
          <path class="cls-2" d="M353.98,719.37l-.1-98.76h24.1l.11,8.79c3.34-3.55,7.36-6.37,12.04-8.44,4.68-2.09,9.71-3.12,15.11-3.12,3.62,0,7.25.53,10.87,1.58l-9.48,24.31c-2.51-1-5-1.48-7.51-1.48-3.87,0-7.43.93-10.61,2.81-3.2,1.86-5.74,4.4-7.6,7.6-1.88,3.18-2.81,6.74-2.81,10.61v56.1h-24.11Z"/>
          <path class="cls-2" d="M568.19,656.95v62.42h-24.1v-56.1c0-3.87-.95-7.43-2.86-10.61-1.91-3.2-4.47-5.74-7.65-7.6-3.2-1.88-6.74-2.81-10.63-2.81s-7.43.93-10.61,2.81c-3.2,1.86-5.74,4.4-7.6,7.6-1.88,3.18-2.81,6.74-2.81,10.61v56.1h-24.11l-.1-98.76h24.1l.11,8.79c3.34-3.55,7.36-6.37,12.04-8.44,4.68-2.09,9.71-3.12,15.11-3.12,7.19,0,13.73,1.77,19.66,5.29,5.92,3.52,10.64,8.23,14.16,14.11,3.54,5.9,5.29,12.46,5.29,19.71Z"/>
          <path class="cls-2" d="M661.23,620.6h24.1v100.64c0,7.11-1.45,13.58-4.34,19.4-2.89,5.84-6.85,10.83-11.85,15.01-5.02,4.18-10.74,7.41-17.18,9.68-6.46,2.27-13.25,3.41-20.35,3.41s-13.57-1.41-19.95-4.24c-6.4-2.83-12.04-6.7-16.94-11.61s-8.63-10.48-11.2-16.75l22.02-9.97c1.32,3.62,3.31,6.8,5.98,9.53,2.67,2.73,5.74,4.87,9.23,6.41,3.49,1.54,7.11,2.33,10.87,2.33s7.49-.53,11.01-1.59c3.52-1.04,6.7-2.59,9.53-4.58,2.83-2.01,5.05-4.45,6.67-7.31,1.61-2.86,2.41-6.11,2.41-9.73v-13.94c-3.09,4.36-6.98,7.88-11.65,10.58-4.68,2.7-10.08,4.05-16.19,4.05-7.12,0-13.78-1.35-19.96-4.05-6.19-2.7-11.64-6.43-16.33-11.22-4.71-4.76-8.41-10.27-11.08-16.54-2.65-6.25-3.99-12.97-3.99-20.14s1.33-13.89,3.99-20.14c2.67-6.25,6.37-11.77,11.08-16.54,4.69-4.77,10.14-8.52,16.33-11.22,6.19-2.7,12.84-4.05,19.96-4.05,6.11,0,11.51,1.33,16.19,4,4.68,2.67,8.57,6.17,11.65,10.51v-11.94ZM633.68,698.73c5.06,0,9.56-1.3,13.49-3.91,3.91-2.6,6.99-6.09,9.23-10.46,2.23-4.37,3.36-9.16,3.36-14.37s-1.14-10.08-3.41-14.42-5.37-7.83-9.29-10.46c-3.91-2.64-8.37-3.95-13.37-3.95s-9.45,1.3-13.53,3.91c-4.08,2.59-7.35,6.06-9.77,10.42-2.44,4.34-3.65,9.18-3.65,14.52s1.21,10.18,3.65,14.52c2.43,4.36,5.69,7.81,9.77,10.37,4.08,2.57,8.6,3.86,13.53,3.86Z"/>
          <path class="cls-2" d="M752.49,721.94c-9.1,0-17.38-2.35-24.85-7.01-7.47-4.68-13.42-10.95-17.88-18.82-4.44-7.86-6.65-16.57-6.65-26.12,0-7.25,1.29-14,3.84-20.3,2.57-6.29,6.11-11.81,10.63-16.59,4.5-4.77,9.76-8.5,15.75-11.2,5.98-2.7,12.38-4.05,19.16-4.05,9.08,0,17.36,2.33,24.84,7.01,7.47,4.68,13.42,10.96,17.88,18.87,4.44,7.89,6.67,16.65,6.67,26.27,0,7.17-1.29,13.89-3.86,20.14-2.57,6.27-6.11,11.78-10.61,16.54-4.52,4.79-9.76,8.52-15.71,11.22-5.96,2.7-12.36,4.05-19.21,4.05ZM752.49,697.84c4.81,0,9.11-1.29,12.94-3.86,3.81-2.57,6.82-5.96,9.03-10.18,2.2-4.21,3.31-8.83,3.31-13.82s-1.14-9.82-3.41-14.08c-2.28-4.24-5.34-7.64-9.19-10.16-3.84-2.54-8.09-3.81-12.68-3.81s-9.03,1.29-12.84,3.86c-3.83,2.56-6.85,5.98-9.08,10.27-2.25,4.28-3.36,8.92-3.36,13.92s1.14,9.92,3.46,14.13c2.3,4.21,5.39,7.56,9.23,10.01,3.86,2.48,8.05,3.71,12.6,3.71Z"/>
          <path class="cls-2" d="M266.08,726.63c-9.61,0-18.57-1.88-26.83-5.63-8.26-3.76-15.45-8.94-21.57-15.56-6.12-6.62-10.91-14.26-14.37-22.92-3.46-8.65-5.18-17.92-5.18-27.79,0-10.4,1.85-19.95,5.58-28.65,3.71-8.7,8.79-16.22,15.25-22.62,6.45-6.38,13.78-11.32,21.97-14.8,8.2-3.49,16.73-5.24,25.62-5.24,9.95,0,19.61,2.31,29,6.96,9.37,4.65,17.65,11.8,24.84,21.48l-21.54,11.56c-4.4-5.4-9.45-9.42-15.16-12.09-5.69-2.67-11.49-4-17.43-4s-11.35,1.19-16.64,3.55c-5.3,2.36-10.01,5.71-14.13,10.03-4.12,4.31-7.36,9.37-9.73,15.21-2.38,5.82-3.55,12.2-3.55,19.11,0,6.51,1.14,12.65,3.46,18.41,2.3,5.77,5.48,10.8,9.53,15.13,4.03,4.31,8.73,7.68,14.07,10.11,5.34,2.44,11.06,3.67,17.18,3.67,4.08,0,8.09-.64,12.01-1.93,3.91-1.29,7.6-3.15,11.06-5.58,3.46-2.44,6.54-5.4,9.28-8.89,2.73-3.49,4.72-5.65,6.56-10.08h-24.87v-21.03h53.53c.26,10.06-1.32,17.73-4.74,26.55-3.42,8.83-8.26,16.62-14.52,23.4-6.27,6.78-13.53,12.09-21.83,15.9-8.29,3.83-17.25,5.74-26.86,5.74Z"/>
          <g>
            <path class="cls-2" d="M442.16,615.06c-3.55,0-6.54-1.16-8.99-3.5-2.44-2.33-3.65-5.27-3.65-8.84s1.21-6.41,3.65-8.78c2.44-2.38,5.4-3.57,8.89-3.57s6.43,1.19,8.84,3.57c2.4,2.36,3.6,5.29,3.6,8.78s-1.19,6.51-3.55,8.84c-2.38,2.35-5.3,3.5-8.79,3.5Z"/>
            <rect class="cls-2" x="429.91" y="620.6" width="24.1" height="98.76"/>
          </g>
        </g>
      </g>
    </g>
  </g>
</svg>